<?xml version="1.0" encoding="UTF-8" standalone="no"?>
<!-- Created with Inkscape (http://www.inkscape.org/) -->

<svg
   xmlns:dc="http://purl.org/dc/elements/1.1/"
   xmlns:cc="http://creativecommons.org/ns#"
   xmlns:rdf="http://www.w3.org/1999/02/22-rdf-syntax-ns#"
   xmlns:svg="http://www.w3.org/2000/svg"
   xmlns="http://www.w3.org/2000/svg"
   xmlns:inkscape="http://www.inkscape.org/namespaces/inkscape"
   version="1.1"
   width="399.82101"
   height="214.98"
   viewBox="0 0 399.821 214.98"
   id="Layer_1"
   xml:space="preserve"
   style="overflow:visible"><metadata
     id="metadata78"><rdf:RDF><cc:Work
         rdf:about=""><dc:format>image/svg+xml</dc:format><dc:type
           rdf:resource="http://purl.org/dc/dcmitype/StillImage" /></cc:Work></rdf:RDF></metadata><defs
     id="defs76" /><path
     d="m 126.833,132.089 c 3.606,-1.491 1,-6.333 1,-6.333 0,0 -26.333,-5 -21,-24 5.333,-19 5.333,-19 5.333,-19 0,0 6.333,-4.668 11.667,-8.334 5.334,-3.666 3.667,-4.999 -0.667,-3.666 -0.667,-1.334 2.333,-4.667 2.667,-5.333 0.333,-0.668 6,-13.001 -5.333,3.666 0,1 -9.667,12 -4,-7.666 0,0 7.333,-35.334 -1,-9.668 0,0 -2,6.334 -4,2 0,0 4,13.335 -8.333,46.001 -3,-2.667 -5,-5.334 -5,-5.334 -1,-1.666 -1.667,-5.666 3,-14.333 4.667,-8.667 7.333,-14 7.333,-14 0,0 4.333,-8.334 -1,-2.334 0,0 0.333,-18.999 -3,4.334 0,0 -2.666,4.001 -4.333,5.667 0,0 4.667,-11 -1,-8.333 0,0 -3,-7 -2.667,1 0.333,7.999 2,9.667 1,14.333 -1,4.666 -2.667,2.666 -3,-1.334 -0.333,-4 -10,0.334 5.333,24.667 0,0 5.333,25.333 -14.333,7.333 0,0 -24.667,-19.667 7,-43 -4,3 -5.667,6.335 -5,2.334 0.667,-4.001 0,-3.667 0,-3.667 0,0 -3.667,7.001 -6,8.667 -2.333,1.666 -11.667,4.667 9,-18.667 -4,3 -11.333,8.667 -4,-7.667 -7,11 -11.333,23.667 -15.333,12.667 0,0 4.333,46.332 -6,16.333 0,0 -3.667,-6 5,-35.667 -3,6.667 -5.667,16 -5,-3.333 0,0 -3,1 -2.333,22.333 0,0 -9.333,21.334 -7.333,-7 0,0 3,-12.666 3.333,-15 0.333,-2.334 -1.667,0.667 -2.333,2 -0.666,1.333 -0.667,-5 -0.667,-5 0,0 -2,3 -2.333,7 -0.333,4 -3.333,-3 -4.333,-4.667 -1,-1.667 6.666,11 1.333,21.666 0,0 -7.666,-12.666 -8.333,-9 -0.667,3.667 16,23.668 16.333,25.001 0.333,1.333 10,11 -2,9.333 -4,-0.333 -6.333,-2.667 -8.333,-6 -2,-3.333 -6.333,-10 -6.333,-10 l -9.667,-11 -0.668,-15.333 -1.333,3.667 -2.333,-2.333 2,4.667 0.333,6.333 -2.333,1 c 0,0 28,28.334 5.333,17.667 0,0 -8.334,2.334 10.333,7 0,0 1.333,7.666 17.333,8.666 0,0 12,13.001 15,25.334 0,0 3.333,26.667 -12,6 0,0 3,7.333 1,7.333 -2,0 -11.667,-5.667 -13,-5.667 -1.333,0 -5.333,2 -5.333,2 0,0 27,6.666 1.667,7 0,0 -18,6.333 -11,-36 0,0 -2.333,12.334 -4.333,0.667 0,0 -5.333,26.334 0,36.667 0,0 5,6.332 -2.333,6.666 0,0 9,-1.334 18,-4 0,0 -6.667,13.334 -10,13.334 0,0 3,0.666 -0.333,2.666 0,0 1.333,2.666 5,-2 3.667,-4.666 9,-15.999 22,-15.666 4.333,1.333 20.333,14.666 -4,19.333 -7.333,3 -35,13.001 -32.667,14.667 2.333,1.666 16.333,-8.334 14,-3.334 -2.333,5 -10,19.334 -10,19.334 0,0 9.333,-21.333 7.333,-5 1,1.333 25.333,-45.333 8,0 0.333,1 4.333,-6.001 5,3.333 0,0 0.333,-35.332 25.333,-24.666 0.667,9 -4.667,21.332 -18.667,29.666 14.333,-8.333 16.667,-12 10,2 3.333,-3.333 5,-2.999 6,1.334 1.333,-15 4,-19.666 6.667,-22 2.667,7 3.667,9.999 4,11.666 0.333,1.667 -1.667,-23.667 -2,-25 -0.333,-1.333 13,-0.666 13,-0.666 0,0 10,19.334 5.667,28 2.333,-7.334 -1.667,-22.001 16,3.666 0,0 -12,-13.333 7.333,-8.333 -6.667,-5.333 -19,-12.666 -22.333,-18.333 -3.333,-5.667 -4,-13.333 6.333,-6 10.333,7.333 16.667,10.332 17.667,9.666 1,-0.666 -19.667,-10 3.333,-6 -14.667,-6.333 -39,-11.667 -4.334,-26 z"
     inkscape:connector-curvature="0"
     id="path3"
     style="fill:#afa3cf;stroke:#000000" /><path
     d="m 85.125,136.589 c -0.125,-4.5 1.375,-5.875 4.125,-5.5 2.75,0.375 5.5,1.625 6.625,2.875 1.125,1.25 2.75,3.5 3,4.375 0.25,0.875 0.375,1.75 0.5,2.625 0.125,0.875 0.5,1.75 0.125,2.5 -0.375,0.75 -0.875,2.375 -1.875,2.5 -1,0.125 -1.625,0.375 -2.75,-0.25 -1.125,-0.625 -2.875,-1.75 -3.625,-2.375 -0.75,-0.625 -3.75,-3.625 -4.375,-4.5 -0.625,-0.875 -1.75,-2.25 -1.75,-2.25 z"
     inkscape:connector-curvature="0"
     id="path5"
     style="fill:#5b9974;stroke:#000000" /><path
     d="m 127.5,133.339 c 2.25,-4.5 1.625,-6 1.125,-7.375 -0.5,-1.375 17.625,-2 30,5 0,0 11.75,4 1.25,11.5 0,0 -19.5,2.875 -32.375,-9.125 z"
     inkscape:connector-curvature="0"
     id="path7"
     style="fill:#f9d566;stroke:#000000" /><path
     d="m 168.375,145.839 c 0,0 -3.625,-1.75 -2.5,-5 1.125,-3.25 2.125,-3.25 3.125,-3.625 1,-0.375 6.75,-0.25 7.25,-0.25 0.5,0 19.75,2 22.375,4.25 2.625,2.25 3.5,5 3.5,6.125 0,1.125 -0.25,4.75 -3.75,4.75 -3.5,0 -18.375,-0.25 -19,-0.875 -0.625,-0.625 -8.5,-2.75 -11,-5.375 z"
     inkscape:connector-curvature="0"
     id="path9"
     style="fill:#f9d566;stroke:#000000" /><path
     d="m 214.375,155.089 c -6.625,-2.125 -9.5,-4.625 -9.25,-7.25 0.25,-2.625 0.75,-3.625 1.875,-4.25 1.125,-0.625 3.875,-1.375 4.625,-1.625 0.75,-0.25 22.375,-3.375 24.5,-2.875 2.125,0.5 4.75,3 5,4.5 0.25,1.5 2.625,5 -2.75,7.25 -5.375,2.25 -9.375,3.75 -13,4 -3.625,0.25 -11,0.25 -11,0.25 z"
     inkscape:connector-curvature="0"
     id="path11"
     style="fill:#f9d566;stroke:#000000" /><path
     d="m 252.125,145.464 c -6.009,0.376 -7.875,1.125 -7.75,-3.375 0.125,-4.5 -0.375,-6.125 3.25,-7.875 3.625,-1.75 13.875,-8.5 15.5,-9.25 1.625,-0.75 6.875,-2.375 9.25,0.75 2.375,3.125 2.125,4.5 -0.375,7.25 -2.5,2.75 -15.875,12.25 -19.875,12.5 z"
     inkscape:connector-curvature="0"
     id="path13"
     style="fill:#f9d566;stroke:#000000" /><path
     d="m 274,122.839 c -2.44,-4.532 -3.375,-7 -1.125,-10.25 2.25,-3.25 13.125,-18.75 13.5,-19.25 0.375,-0.5 4.625,-2.375 8.375,0.875 3.75,3.25 4.5,5.5 1,10.25 -3.5,4.75 -11.625,17.5 -14.5,19 -2.875,1.5 -5.5,2.625 -7.25,-0.625 z"
     inkscape:connector-curvature="0"
     id="path15"
     style="fill:#f9d566;stroke:#000000" /><ellipse
     cx="140"
     cy="130.964"
     rx="3.375"
     ry="2.125"
     id="ellipse17"
     style="fill:#e68b60;stroke:#b76328" /><ellipse
     cx="181.875"
     cy="144.839"
     rx="3.375"
     ry="2.125"
     id="ellipse19"
     style="fill:#e68b60;stroke:#b76328" /><ellipse
     cx="224.125"
     cy="147.839"
     rx="3.375"
     ry="2.125"
     id="ellipse21"
     style="fill:#e68b60;stroke:#b76328" /><ellipse
     cx="258.5"
     cy="134.214"
     rx="3.375"
     ry="2.125"
     transform="matrix(0.912,-0.4103,0.4103,0.912,-32.3066,117.8699)"
     id="ellipse23"
     style="fill:#e68b60;stroke:#b76328" /><ellipse
     cx="283.625"
     cy="107.464"
     rx="3.375"
     ry="2.125"
     transform="matrix(0.5422,-0.8402,0.8402,0.5422,39.543,287.5071)"
     id="ellipse25"
     style="fill:#e68b60;stroke:#b76328" /><path
     d="m 164.25,137.089 c 2.25,0.5 3.75,0.5 3.75,0.5 l -2.125,3.25 -4.125,-0.125 2.5,-3.625 z"
     inkscape:connector-curvature="0"
     id="path27"
     style="fill:#afa3cf;stroke:#000000" /><path
     d="m 201.75,145.214 4.125,-0.25 -0.875,4.125 h -3.125 c 0,0 0.25,-3.375 -0.125,-3.875 z"
     inkscape:connector-curvature="0"
     id="path29"
     style="fill:#afa3cf;stroke:#000000" /><path
     d="m 240.25,141.589 c 0,0 3.375,-2.5 3.625,-3.125 0.25,-0.625 0.375,5 0.5,5.375 0.125,0.375 -2.25,0.875 -2.25,0.875 l -1.875,-3.125 z"
     inkscape:connector-curvature="0"
     id="path31"
     style="fill:#afa3cf;stroke:#000000" /><path
     d="m 269.625,123.714 2.75,-3.875 2.875,4.375 -2,1.875 c 0,0 -1.75,-2.125 -3.625,-2.375 z"
     inkscape:connector-curvature="0"
     id="path33"
     style="fill:#afa3cf;stroke:#000000" /><path
     d="m 291.167,92.256 c 0.041,-0.09 0.082,-0.18 0.123,-0.27 3.275,-7.251 5.894,-14.772 7.21,-18.064 1.333,-3.333 1.833,-11.166 1.333,-12 -0.5,-0.834 -2,-6.5 -5.833,-5.333 -3.833,1.167 -2.501,0 -3.667,1.833 -1.166,1.833 -3.999,2 -4.166,0.333 -0.167,-1.667 0.5,-2.167 3.333,-2.667 2.833,-0.5 1.333,-2.5 -0.667,-4.333 -2,-1.833 -7.334,-1.833 -3.5,-4.333 3.834,-2.5 4,-2.834 5.5,-1.667 1.5,1.167 -3.167,2 1,4.5 4.167,2.5 7.166,4 8.5,4.167 1.334,0.167 2.5,0.333 2.5,-1.167 0,-1.5 1.667,-3 2.667,-3.833 1,-0.833 1.5,-4.167 1.5,-4.167 0,0 -3.5,-3.166 -0.5,-2.833 3,0.333 4.5,0.5 3,2.333 0.333,0.5 -0.166,2 0.167,2.5 0.333,0.5 5.333,-0.166 5.333,-0.166 0,0 4.5,-0.333 3,2.5 -0.333,0.833 -1.5,2 -3.5,0.667 -1.833,0.333 -3.667,-0.333 -4.167,-0.167 -0.5,0.166 -7.167,3.167 -6.5,18.167 4.5,-2.5 17.668,-10.334 19.334,-11 1.666,-0.666 9.666,-9.833 9.833,-10.667 0.167,-0.834 -1.666,-3.333 -1.333,-4 0.333,-0.667 3.499,-2 4.166,-2.167 0.667,-0.167 1.501,-2 2.334,0.167 0.833,2.167 0.667,2.167 0,2.667 -0.667,0.5 -1.166,0.833 -1,1.833 0.166,1 0.333,1.667 0.833,1.5 0.5,-0.167 0.833,0.833 0.833,0.833 l -6.666,5.333 c 0,0 6.167,-1.167 7,-2 0.833,-0.833 2.5,-1.667 2.833,-0.5 0.333,1.167 0.667,0.834 0,1.667 -0.667,0.833 -1.833,1.666 -4,2.333 -2.167,0.667 -3.667,1.333 -5,1.5 -1.333,0.167 -3.833,1 -3.833,1 0,0 -1.333,0.333 -4,2.5 -2.667,2.167 -4.5,3.167 -6.167,4.167 -1.667,1 -2.833,1.333 -4.5,2.5 -1.667,1.167 -4.5,2.5 -4.5,2.5 0,0 -2.501,0.834 -3.167,1.667 -0.666,0.833 -1.832,2.167 -2.166,2.667 -0.334,0.5 -1,2.166 -1,2.166 l -0.667,3 -2.167,2.5 -0.5,2.334 c 0,0 4.166,0.5 5,0.5 0.834,0 1.5,-0.001 2.667,-0.834 1.167,-0.833 1,-0.334 2,-1.5 1,-1.166 2.167,-2.333 2.667,-3.333 0.5,-1 1.666,-2.167 2.666,-3 1,-0.833 2.333,-2.001 3,-2.167 0.667,-0.166 3,-0.833 3.5,-1.333 0.5,-0.5 1.001,0.001 1.334,-0.833 0.333,-0.834 1.334,-2.5 1.5,-3.333 0.166,-0.833 0.166,-1.167 0.833,-1.167 0.667,0 1.167,-0.333 1.5,0.5 0.333,0.833 1.001,0.667 0.667,1.833 -0.334,1.166 -0.667,1.833 -0.667,1.833 l 0.167,0.334 c 0,0 1.5,0.499 2,-0.334 0.5,-0.833 1.333,-1.333 1.333,-1.333 l 1,-1.333 0.833,-1.5 0.834,-0.667 1.5,-0.333 c 0,0 0.5,0 0.833,1.167 0.333,1.167 0.5,1.667 0.5,2.167 0,0.5 -2,2 -2,2 l -0.667,0.667 c 0,0 -1.5,0.332 -2,0.666 -0.5,0.334 -2.166,0.834 -2.166,0.834 l -2.334,0.166 -1.666,0.834 -0.667,0.5 v 1 c 0,0 0.667,0.834 1.167,1 0.5,0.166 3.5,0 3.5,0 l 0.666,-0.167 -1,1.333 -3.333,0.667 c 0,0 -0.834,0.166 -1.667,0.333 -0.833,0.167 -3,0.5 -3,0.5 0,0 -1.834,0.834 -2.5,1.334 -0.666,0.5 -2,0.167 -0.833,1 1.167,0.833 0.333,1.334 4,1 3.667,-0.334 1.334,-0.667 4.667,0.333 3.333,1 4,0.667 6,1.667 2,1 -1.334,0.332 4.333,2.166 5.667,1.834 5.499,1.666 9.333,3 3.834,1.334 3.333,-0.5 4.5,2 1.167,2.5 6.667,2.833 1.167,2.5 -5.5,-0.333 -4.499,-0.333 -7.333,-1.333 -2.834,-1 -2.5,-1.167 -6.667,-2.667 -4.167,-1.5 -6.667,-3.667 -2.167,1.5 4.5,5.167 5.5,5.667 6.167,10.167 0.667,4.5 1,14.167 5,14.5 4,0.333 7.501,1.333 5.167,3.333 -2.334,2 -6.168,0.668 -7.334,-1.166 -1.166,-1.834 -3.666,-3.5 -4.166,-6 -0.5,-2.5 0.334,-4.501 -0.5,-4.834 -0.834,-0.333 -0.834,-0.332 -1.667,0.334 -0.833,0.666 -0.333,-0.834 -1.5,1.833 -1.167,2.667 -1.501,3.167 -2.167,3.5 -0.666,0.333 -4.166,0.834 -4.166,-0.833 0,-1.667 0.5,-2.168 1.333,-2.334 0.833,-0.166 -0.667,1.333 2,-1 2.667,-2.333 3.834,-4.166 4.167,-5.166 0.333,-1 2.166,-5.5 -5.667,-11.167 -7.833,-5.667 -13.666,-9.166 -20.833,-5.833 2,3 5.667,5.333 5.5,11.333 0,0.667 2.832,3 -0.334,4 -0.5,0.167 -3.5,0.333 -1.833,-4 0,-2.167 0.501,-3.499 -3.833,-7.333 0.166,3.666 -0.168,7.332 0.166,8.666 0.334,1.334 3.168,4.501 -0.666,5.834 -2.167,-0.5 -3.834,-1.833 -1.334,-6 0,-3.834 -3.999,-20.333 -14.166,-5 -2.334,-0.668 -3.5,-1.501 -3.5,-1.501 z"
     inkscape:connector-curvature="0"
     id="path35"
     style="fill:#afa3cf;stroke:#000000" /><path
     d="M 367.333,131.756"
     inkscape:connector-curvature="0"
     id="path37"
     style="fill:#afa3cf;stroke:#000000" /><line
     stroke="#000000"
     x1="142.5"
     y1="78.088997"
     x2="111.5"
     y2="118.589"
     id="line39"
     style="stroke:#000000" /><line
     stroke="#000000"
     x1="74"
     y1="18.589001"
     x2="75.5"
     y2="65.088997"
     id="line41"
     style="stroke:#000000" /><line
     fill="none"
     stroke="#000000"
     x1="89.5"
     y1="142.089"
     x2="43.5"
     y2="200.089"
     id="line43"
     style="fill:none;stroke:#000000" /><line
     fill="none"
     stroke="#000000"
     x1="127.5"
     y1="133.339"
     x2="143"
     y2="162.089"
     id="line45"
     style="fill:none;stroke:#000000" /><line
     fill="none"
     stroke="#000000"
     x1="227"
     y1="155.089"
     x2="227.5"
     y2="183.589"
     id="line47"
     style="fill:none;stroke:#000000" /><line
     fill="none"
     stroke="#000000"
     x1="259.37201"
     y1="136.151"
     x2="304"
     y2="159.589"
     id="line49"
     style="fill:none;stroke:#000000" /><line
     fill="none"
     stroke="#000000"
     x1="271"
     y1="121.089"
     x2="255"
     y2="69.088997"
     id="line51"
     style="fill:none;stroke:#000000" /><line
     fill="none"
     stroke="#000000"
     x1="350.33301"
     y1="90.921997"
     x2="349"
     y2="35.589001"
     id="line53"
     style="fill:none;stroke:#000000" /><text
     transform="translate(42,12.0889)"
     id="text55"
     style="font-size:14px;font-family:Verdana">Dendrite</text>
<text
     transform="translate(138,76.5889)"
     id="text57"
     style="font-size:14px;font-family:Verdana">Cell body</text>
<text
     transform="translate(224.8135,49.5889)"
     id="text59"><tspan
       x="0"
       y="0"
       id="tspan61"
       style="font-size:14px;font-family:Verdana">Node of</tspan><tspan
       x="0.465"
       y="16.799999"
       id="tspan63"
       style="font-size:14px;font-family:Verdana">Ranvier</tspan></text>
<text
     transform="translate(298.1777,26.5889)"
     id="text65"
     style="font-size:14px;font-family:Verdana">Axon Terminal</text>
<text
     transform="translate(308,171.5889)"
     id="text67"
     style="font-size:14px;font-family:Verdana">Schwann cell</text>
<text
     transform="translate(219.5,198.0889)"
     id="text69"
     style="font-size:14px;font-family:Verdana">Myelin sheath</text>
<text
     transform="translate(140,176.0889)"
     id="text71"
     style="font-size:14px;font-family:Verdana">Axon</text>
<text
     transform="translate(0,212.0889)"
     id="text73"
     style="font-size:14px;font-family:Verdana">Nucleus</text>
</svg>